<?xml version="1.0" encoding="utf-8"?>
<!-- Generator: Adobe Illustrator 23.0.0, SVG Export Plug-In . SVG Version: 6.00 Build 0)  -->
<svg version="1.1" id="Layer_1" xmlns="http://www.w3.org/2000/svg" xmlns:xlink="http://www.w3.org/1999/xlink" x="0px" y="0px"
	 viewBox="0 0 207 53" style="enable-background:new 0 0 207 53;" xml:space="preserve">
<style type="text/css">
	.st0{fill:#90E0EF;}
	.st1{fill:#0077B6;}
	.st2{fill:#FFFFFF;}
	.st3{fill:url(#SVGID_1_);}
	.st4{fill:#03045E;}
</style>
<title>logo-svg</title>
<desc>Created with Sketch.</desc>
<path id="Path" class="st0" d="M6,25.3c-0.8,2-1.5,4.2-1.8,6.8C3.1,42,10.7,49.9,20.5,49.9s17.9-8.1,17.9-18.1
	c0-1.8-0.9-4.5-0.9-4.5c-0.8,5.2-5.1,8.2-5.1,8.2c2.6-7,1.2-13.3-1.9-18C23.3,7.1,25.2,0,25.2,0c-9.6,8.7-9.1,18.3-9.1,18.3
	C15.2,12.4,8,10.1,8,10.1c2.4,4.1,1.5,7.3-0.1,10.8C6.8,23.5,6,25.3,6,25.3z"/>
<path class="st1" d="M26.6,17.6c3.2,4.6,6.5,8.7,5.9,17.9l0,0c0.8-2.1,1.4-4.9,1.4-7.2c0-4.1-1.3-7.8-3.3-10.7
	C23.3,7.1,25.2,0,25.2,0c-1.6,1.5-3,2.9-4,4.4C21.5,7.5,22.8,12.1,26.6,17.6z"/>
<g>
	<path id="path-2_1_" d="M74.2,17.8v17.3c0,3.9-1.1,6.9-3.2,8.8c-2.1,2-5.2,2.9-9.2,2.9c-2.1,0-4-0.2-5.9-0.7
		c-1.8-0.5-3.4-1.2-4.6-2.1l2.7-5.2c0.9,0.7,1.9,1.3,3.3,1.7c1.3,0.4,2.6,0.6,3.9,0.6c2,0,3.4-0.4,4.3-1.3s1.4-2.1,1.4-3.8v-0.7
		c-1.4,1.7-3.5,2.5-6.3,2.5c-1.9,0-3.6-0.4-5.2-1.3c-1.6-0.8-2.8-2-3.8-3.6s-1.4-3.3-1.4-5.4c0-2,0.5-3.8,1.4-5.3s2.2-2.7,3.8-3.6
		c1.6-0.8,3.3-1.3,5.2-1.3c3,0,5.2,1,6.6,2.9v-2.6h7V17.8z M62.3,32c1.3,0,2.4-0.4,3.3-1.2c0.9-0.8,1.3-1.8,1.3-3.1
		s-0.4-2.3-1.3-3.1c-0.9-0.8-2-1.2-3.3-1.2s-2.5,0.4-3.3,1.2c-0.9,0.8-1.3,1.8-1.3,3.1s0.4,2.3,1.3,3.1C59.9,31.6,61,32,62.3,32z
		 M100.6,28.4c0,0.1,0,0.7-0.1,1.8H85.1c0.3,1.1,0.9,1.9,1.8,2.5s2,0.9,3.4,0.9c1,0,1.9-0.1,2.6-0.4c0.7-0.3,1.5-0.8,2.2-1.4
		l3.9,4.1c-2.1,2.3-5.1,3.4-9,3.4c-2.5,0-4.6-0.5-6.5-1.4s-3.3-2.2-4.3-3.9s-1.5-3.5-1.5-5.7c0-2.1,0.5-3.9,1.5-5.6s2.4-2.9,4.2-3.9
		s3.8-1.4,6-1.4c2.1,0,4,0.4,5.7,1.3s3.1,2.1,4.1,3.8C100.1,24.2,100.6,26.2,100.6,28.4z M89.3,22.7c-1.1,0-2.1,0.3-2.9,1
		s-1.3,1.5-1.5,2.7h8.7c-0.2-1.1-0.7-2-1.5-2.7C91.4,23.1,90.5,22.7,89.3,22.7z M118.6,38.1c-0.6,0.4-1.4,0.7-2.3,0.9
		s-1.9,0.3-2.9,0.3c-2.8,0-4.9-0.7-6.4-2c-1.5-1.4-2.2-3.4-2.2-6v-7.1h-3.1v-5.5h3.1v-5.5h7.4v5.5h4.8v5.5h-4.8v7
		c0,0.8,0.2,1.3,0.6,1.8c0.4,0.4,0.9,0.6,1.6,0.6c0.9,0,1.6-0.2,2.3-0.7L118.6,38.1z M131.1,31.5l-2.2,2.2V39h-7.4V10h7.4v15.2
		l7.6-7.4h8.8l-8.8,9L146,39h-9L131.1,31.5z M158.1,39.3c-2.3,0-4.4-0.5-6.3-1.4c-1.8-0.9-3.3-2.2-4.3-3.9s-1.5-3.5-1.5-5.7
		s0.5-4,1.5-5.6s2.5-2.9,4.3-3.9c1.8-0.9,3.9-1.4,6.3-1.4c2.4,0,4.5,0.5,6.2,1.5s3,2.5,3.7,4.3l-5.7,2.9c-1-1.9-2.4-2.8-4.2-2.8
		c-1.3,0-2.4,0.4-3.3,1.3c-0.9,0.9-1.3,2.1-1.3,3.7s0.4,2.8,1.3,3.7c0.9,0.9,2,1.3,3.3,1.3c1.8,0,3.3-0.9,4.2-2.8l5.7,2.9
		c-0.7,1.8-2,3.2-3.7,4.3C162.5,38.8,160.5,39.3,158.1,39.3z M179.8,17.5c3.5,0,6.2,0.8,8,2.4s2.8,4,2.8,7.4V39h-6.9v-2.7
		c-1.1,2.1-3.1,3.1-6.2,3.1c-1.6,0-3.1-0.3-4.3-0.9c-1.2-0.6-2.1-1.3-2.7-2.3c-0.6-1-0.9-2.1-0.9-3.3c0-2,0.8-3.6,2.3-4.7
		s3.9-1.7,7.1-1.7h4.2c-0.1-2.2-1.6-3.4-4.5-3.4c-1,0-2,0.2-3.1,0.5c-1,0.3-1.9,0.8-2.7,1.3l-2.5-5c1.2-0.8,2.6-1.4,4.3-1.8
		S178.1,17.5,179.8,17.5z M179.5,34.6c0.9,0,1.6-0.2,2.3-0.6c0.6-0.4,1.1-1,1.4-1.8v-1.8H180c-2.2,0-3.2,0.7-3.2,2.1
		c0,0.7,0.2,1.2,0.7,1.6C178,34.4,178.7,34.6,179.5,34.6z M195.3,10h7.4v29h-7.4V10z"/>
</g>
<g>
	<path class="st2" d="M74.2,17.8v17.3c0,3.9-1.1,6.9-3.2,8.8c-2.1,2-5.2,2.9-9.2,2.9c-2.1,0-4-0.2-5.9-0.7c-1.8-0.5-3.4-1.2-4.6-2.1
		l2.7-5.2c0.9,0.7,1.9,1.3,3.3,1.7c1.3,0.4,2.6,0.6,3.9,0.6c2,0,3.4-0.4,4.3-1.3s1.4-2.1,1.4-3.8v-0.7c-1.4,1.7-3.5,2.5-6.3,2.5
		c-1.9,0-3.6-0.4-5.2-1.3c-1.6-0.8-2.8-2-3.8-3.6s-1.4-3.3-1.4-5.4c0-2,0.5-3.8,1.4-5.3s2.2-2.7,3.8-3.6c1.6-0.8,3.3-1.3,5.2-1.3
		c3,0,5.2,1,6.6,2.9v-2.6h7V17.8z M62.3,32c1.3,0,2.4-0.4,3.3-1.2c0.9-0.8,1.3-1.8,1.3-3.1s-0.4-2.3-1.3-3.1c-0.9-0.8-2-1.2-3.3-1.2
		s-2.5,0.4-3.3,1.2c-0.9,0.8-1.3,1.8-1.3,3.1s0.4,2.3,1.3,3.1C59.9,31.6,61,32,62.3,32z M100.6,28.4c0,0.1,0,0.7-0.1,1.8H85.1
		c0.3,1.1,0.9,1.9,1.8,2.5s2,0.9,3.4,0.9c1,0,1.9-0.1,2.6-0.4c0.7-0.3,1.5-0.8,2.2-1.4l3.9,4.1c-2.1,2.3-5.1,3.4-9,3.4
		c-2.5,0-4.6-0.5-6.5-1.4s-3.3-2.2-4.3-3.9s-1.5-3.5-1.5-5.7c0-2.1,0.5-3.9,1.5-5.6s2.4-2.9,4.2-3.9s3.8-1.4,6-1.4
		c2.1,0,4,0.4,5.7,1.3s3.1,2.1,4.1,3.8C100.1,24.2,100.6,26.2,100.6,28.4z M89.3,22.7c-1.1,0-2.1,0.3-2.9,1s-1.3,1.5-1.5,2.7h8.7
		c-0.2-1.1-0.7-2-1.5-2.7C91.4,23.1,90.5,22.7,89.3,22.7z M118.6,38.1c-0.6,0.4-1.4,0.7-2.3,0.9s-1.9,0.3-2.9,0.3
		c-2.8,0-4.9-0.7-6.4-2c-1.5-1.4-2.2-3.4-2.2-6v-7.1h-3.1v-5.5h3.1v-5.5h7.4v5.5h4.8v5.5h-4.8v7c0,0.8,0.2,1.3,0.6,1.8
		c0.4,0.4,0.9,0.6,1.6,0.6c0.9,0,1.6-0.2,2.3-0.7L118.6,38.1z M131.1,31.5l-2.2,2.2V39h-7.4V10h7.4v15.2l7.6-7.4h8.8l-8.8,9L146,39
		h-9L131.1,31.5z M158.1,39.3c-2.3,0-4.4-0.5-6.3-1.4c-1.8-0.9-3.3-2.2-4.3-3.9s-1.5-3.5-1.5-5.7s0.5-4,1.5-5.6s2.5-2.9,4.3-3.9
		c1.8-0.9,3.9-1.4,6.3-1.4c2.4,0,4.5,0.5,6.2,1.5s3,2.5,3.7,4.3l-5.7,2.9c-1-1.9-2.4-2.8-4.2-2.8c-1.3,0-2.4,0.4-3.3,1.3
		c-0.9,0.9-1.3,2.1-1.3,3.7s0.4,2.8,1.3,3.7c0.9,0.9,2,1.3,3.3,1.3c1.8,0,3.3-0.9,4.2-2.8l5.7,2.9c-0.7,1.8-2,3.2-3.7,4.3
		C162.5,38.8,160.5,39.3,158.1,39.3z M179.8,17.5c3.5,0,6.2,0.8,8,2.4s2.8,4,2.8,7.4V39h-6.9v-2.7c-1.1,2.1-3.1,3.1-6.2,3.1
		c-1.6,0-3.1-0.3-4.3-0.9c-1.2-0.6-2.1-1.3-2.7-2.3c-0.6-1-0.9-2.1-0.9-3.3c0-2,0.8-3.6,2.3-4.7s3.9-1.7,7.1-1.7h4.2
		c-0.1-2.2-1.6-3.4-4.5-3.4c-1,0-2,0.2-3.1,0.5c-1,0.3-1.9,0.8-2.7,1.3l-2.5-5c1.2-0.8,2.6-1.4,4.3-1.8S178.1,17.5,179.8,17.5z
		 M179.5,34.6c0.9,0,1.6-0.2,2.3-0.6c0.6-0.4,1.1-1,1.4-1.8v-1.8H180c-2.2,0-3.2,0.7-3.2,2.1c0,0.7,0.2,1.2,0.7,1.6
		C178,34.4,178.7,34.6,179.5,34.6z M195.3,10h7.4v29h-7.4V10z"/>
</g>
<g>
	
		<linearGradient id="SVGID_1_" gradientUnits="userSpaceOnUse" x1="-786.8073" y1="26.167" x2="-785.8075" y2="26.167" gradientTransform="matrix(152.529 0 0 36.855 120061.1328 -935.9832)">
		<stop  offset="0" style="stop-color:#0077B6"/>
		<stop  offset="1" style="stop-color:#90E0EF"/>
	</linearGradient>
	<path class="st3" d="M74.2,17.8v17.3c0,3.9-1.1,6.9-3.2,8.8c-2.1,2-5.2,2.9-9.2,2.9c-2.1,0-4-0.2-5.9-0.7c-1.8-0.5-3.4-1.2-4.6-2.1
		l2.7-5.2c0.9,0.7,1.9,1.3,3.3,1.7c1.3,0.4,2.6,0.6,3.9,0.6c2,0,3.4-0.4,4.3-1.3s1.4-2.1,1.4-3.8v-0.7c-1.4,1.7-3.5,2.5-6.3,2.5
		c-1.9,0-3.6-0.4-5.2-1.3c-1.6-0.8-2.8-2-3.8-3.6s-1.4-3.3-1.4-5.4c0-2,0.5-3.8,1.4-5.3s2.2-2.7,3.8-3.6c1.6-0.8,3.3-1.3,5.2-1.3
		c3,0,5.2,1,6.6,2.9v-2.6h7V17.8z M62.3,32c1.3,0,2.4-0.4,3.3-1.2c0.9-0.8,1.3-1.8,1.3-3.1s-0.4-2.3-1.3-3.1c-0.9-0.8-2-1.2-3.3-1.2
		s-2.5,0.4-3.3,1.2c-0.9,0.8-1.3,1.8-1.3,3.1s0.4,2.3,1.3,3.1C59.9,31.6,61,32,62.3,32z M100.6,28.4c0,0.1,0,0.7-0.1,1.8H85.1
		c0.3,1.1,0.9,1.9,1.8,2.5s2,0.9,3.4,0.9c1,0,1.9-0.1,2.6-0.4c0.7-0.3,1.5-0.8,2.2-1.4l3.9,4.1c-2.1,2.3-5.1,3.4-9,3.4
		c-2.5,0-4.6-0.5-6.5-1.4s-3.3-2.2-4.3-3.9s-1.5-3.5-1.5-5.7c0-2.1,0.5-3.9,1.5-5.6s2.4-2.9,4.2-3.9s3.8-1.4,6-1.4
		c2.1,0,4,0.4,5.7,1.3s3.1,2.1,4.1,3.8C100.1,24.2,100.6,26.2,100.6,28.4z M89.3,22.7c-1.1,0-2.1,0.3-2.9,1s-1.3,1.5-1.5,2.7h8.7
		c-0.2-1.1-0.7-2-1.5-2.7C91.4,23.1,90.5,22.7,89.3,22.7z M118.6,38.1c-0.6,0.4-1.4,0.7-2.3,0.9s-1.9,0.3-2.9,0.3
		c-2.8,0-4.9-0.7-6.4-2c-1.5-1.4-2.2-3.4-2.2-6v-7.1h-3.1v-5.5h3.1v-5.5h7.4v5.5h4.8v5.5h-4.8v7c0,0.8,0.2,1.3,0.6,1.8
		c0.4,0.4,0.9,0.6,1.6,0.6c0.9,0,1.6-0.2,2.3-0.7L118.6,38.1z M131.1,31.5l-2.2,2.2V39h-7.4V10h7.4v15.2l7.6-7.4h8.8l-8.8,9L146,39
		h-9L131.1,31.5z M158.1,39.3c-2.3,0-4.4-0.5-6.3-1.4c-1.8-0.9-3.3-2.2-4.3-3.9s-1.5-3.5-1.5-5.7s0.5-4,1.5-5.6s2.5-2.9,4.3-3.9
		c1.8-0.9,3.9-1.4,6.3-1.4c2.4,0,4.5,0.5,6.2,1.5s3,2.5,3.7,4.3l-5.7,2.9c-1-1.9-2.4-2.8-4.2-2.8c-1.3,0-2.4,0.4-3.3,1.3
		c-0.9,0.9-1.3,2.1-1.3,3.7s0.4,2.8,1.3,3.7c0.9,0.9,2,1.3,3.3,1.3c1.8,0,3.3-0.9,4.2-2.8l5.7,2.9c-0.7,1.8-2,3.2-3.7,4.3
		C162.5,38.8,160.5,39.3,158.1,39.3z M179.8,17.5c3.5,0,6.2,0.8,8,2.4s2.8,4,2.8,7.4V39h-6.9v-2.7c-1.1,2.1-3.1,3.1-6.2,3.1
		c-1.6,0-3.1-0.3-4.3-0.9c-1.2-0.6-2.1-1.3-2.7-2.3c-0.6-1-0.9-2.1-0.9-3.3c0-2,0.8-3.6,2.3-4.7s3.9-1.7,7.1-1.7h4.2
		c-0.1-2.2-1.6-3.4-4.5-3.4c-1,0-2,0.2-3.1,0.5c-1,0.3-1.9,0.8-2.7,1.3l-2.5-5c1.2-0.8,2.6-1.4,4.3-1.8S178.1,17.5,179.8,17.5z
		 M179.5,34.6c0.9,0,1.6-0.2,2.3-0.6c0.6-0.4,1.1-1,1.4-1.8v-1.8H180c-2.2,0-3.2,0.7-3.2,2.1c0,0.7,0.2,1.2,0.7,1.6
		C178,34.4,178.7,34.6,179.5,34.6z M195.3,10h7.4v29h-7.4V10z"/>
</g>
<path class="st0" d="M8.1,17.8L8.1,17.8C7,12.4,0,10.2,0,10.2c0.6,1.1,1,2.1,1.2,3C3.6,14,8.1,17.8,8.1,17.8z"/>
<path class="st1" d="M37.5,27.4c-0.4,2.9-2,5.1-3.2,6.5c-0.9,8.4-7.5,15-15.8,15.9c0.7,0.1,1.3,0.1,2,0.1c9.9,0,17.9-8.1,17.9-18.1
	C38.4,30,37.5,27.4,37.5,27.4z"/>
<path class="st4" d="M25,37.8c0.7,1.4,1.2,2.8,1.2,3.7c0,3-2.4,5.4-5.4,5.4s-5.4-2.4-5.4-5.4s5.4-10.8,5.4-10.8s1.2,1.8,2.5,4
	L25,37.8z"/>
</svg>
